<?xml version="1.0" encoding="UTF-8"?>
<svg width="154px" height="32px" viewBox="0 0 154 32" version="1.1" xmlns="http://www.w3.org/2000/svg" xmlns:xlink="http://www.w3.org/1999/xlink">
    <!-- Generator: Sketch 59.1 (86144) - https://sketch.com -->
    <title>logo</title>
    <desc>Created with Sketch.</desc>
    <defs>
        <linearGradient x1="12.6842478%" y1="93.5174574%" x2="101.172774%" y2="39.5168169%" id="linearGradient-1">
            <stop stop-color="#186131" offset="0%"></stop>
            <stop stop-color="#449741" offset="14.78%"></stop>
            <stop stop-color="#5ABA47" offset="26.6%"></stop>
            <stop stop-color="#5ABA47" offset="46.31%"></stop>
            <stop stop-color="#6ABD45" offset="52.22%"></stop>
            <stop stop-color="#47B649" offset="58.13%"></stop>
            <stop stop-color="#007B7B" offset="75.37%"></stop>
            <stop stop-color="#00404B" offset="100%"></stop>
        </linearGradient>
        <linearGradient x1="41.8886296%" y1="60.7281312%" x2="58.8479053%" y2="-32.8906313%" id="linearGradient-2">
            <stop stop-color="#00773C" offset="0%"></stop>
            <stop stop-color="#3BB649" offset="22.674%"></stop>
            <stop stop-color="#6ABD45" offset="54.19%"></stop>
            <stop stop-color="#8BC63F" offset="72.91%"></stop>
            <stop stop-color="#9ECC3B" offset="77.34%"></stop>
            <stop stop-color="#B3D335" offset="80.3%"></stop>
            <stop stop-color="#A7CF3F" offset="84.24%"></stop>
            <stop stop-color="#91C851" offset="100%"></stop>
        </linearGradient>
        <linearGradient x1="92.6513189%" y1="47.8969464%" x2="7.80144237%" y2="51.4007823%" id="linearGradient-3">
            <stop stop-color="#192652" offset="0%"></stop>
            <stop stop-color="#008C96" offset="100%"></stop>
        </linearGradient>
        <linearGradient x1="33.8248287%" y1="92.6517098%" x2="65.4813598%" y2="0.429250538%" id="linearGradient-4">
            <stop stop-color="#EE2424" offset="0%"></stop>
            <stop stop-color="#F14722" offset="10.18%"></stop>
            <stop stop-color="#F14722" offset="10.18%"></stop>
            <stop stop-color="#F14722" offset="10.18%"></stop>
            <stop stop-color="#F7911E" offset="31.33%"></stop>
            <stop stop-color="#F9A11B" offset="48.139%"></stop>
            <stop stop-color="#F8941C" offset="50.315%"></stop>
            <stop stop-color="#F8941C" offset="50.315%"></stop>
            <stop stop-color="#F8941C" offset="50.315%"></stop>
            <stop stop-color="#F47A20" offset="54.409%"></stop>
            <stop stop-color="#F15D22" offset="57.131%"></stop>
            <stop stop-color="#EF4023" offset="63.948%"></stop>
            <stop stop-color="#ED2024" offset="70.5%"></stop>
            <stop stop-color="#ED2024" offset="86.21%"></stop>
            <stop stop-color="#851619" offset="100%"></stop>
        </linearGradient>
        <linearGradient x1="16.3330187%" y1="91.8454636%" x2="79.5254608%" y2="12.5080672%" id="linearGradient-5">
            <stop stop-color="#F15722" offset="0%"></stop>
            <stop stop-color="#F37121" offset="26.11%"></stop>
            <stop stop-color="#F58120" offset="37.188%"></stop>
            <stop stop-color="#E14F25" offset="42.158%"></stop>
            <stop stop-color="#D61F26" offset="49.054%"></stop>
            <stop stop-color="#550F0E" offset="100%"></stop>
        </linearGradient>
    </defs>
    <g id="Anna" stroke="none" stroke-width="1" fill="none" fill-rule="evenodd">
        <g id="Desktop/Vector-Page" transform="translate(-165.000000, -59.000000)">
            <g id="SEARCH-BAR/filterOFF" transform="translate(0.000000, 38.000000)">
                <g id="SEARCH-BAR/NO-FILTERS">
                    <g id="Group-2" transform="translate(165.000000, 15.000000)">
                        <g id="Atoms/Logo/Extended/Black/Colour" transform="translate(0.000000, 6.000000)">
                            <g id="Colourbox-logo-color">
                                <g id="colourboxLogo-text" transform="translate(0.000000, 8.632357)" fill="#111316">
                                    <g id="Group">
                                        <path d="M4.36659191,5.27872448 C3.9383447,6.22599196 3.7012793,7.3336838 3.66304295,8.58652145 L3.66304295,9.23585802 C3.66304295,9.45739639 3.67069021,9.67893476 3.68598477,9.90811237 C3.72422111,10.3741069 3.81598836,10.8324621 3.94599198,11.2831781 C4.0759956,11.7338941 4.29776647,12.1311353 4.61130459,12.4749017 C4.93248998,12.8339466 5.30720628,12.9561747 5.7278062,13.0478457 C6.14840611,13.1318775 6.58430059,13.1777131 7.02019505,13.1777131 L7.20372955,13.1777131 L11.8456232,13.1547953 L11.8456232,15.7674201 L6.72195146,15.7674201 C5.90369343,15.7674201 5.11602448,15.6910276 4.35894463,15.5458818 C3.60186477,15.400736 2.89066854,15.0569695 2.21770868,14.5222218 C1.41474519,13.8652459 0.848847113,13.0707635 0.527661719,12.123496 C0.206476325,11.1838678 0.0305890851,10.2136825 0.00764727128,9.22057951 C-2.2565283e-14,9.01431965 -2.2565283e-14,8.80805981 -2.2565283e-14,8.6094392 C0.00764727128,8.4108186 0.0152945426,8.20455874 0.0305890851,8.00593814 C0.17588724,5.72944046 0.795316214,4.06408309 1.88887601,2.98694829 C2.98243579,1.91745274 4.61895186,1.38270496 6.79842418,1.38270496 L11.8379759,1.3597872 L11.8379759,4.07936162 L7.20372955,4.07936162 C5.74310074,4.10227937 4.79483911,4.33145698 4.36659191,5.27872448 L4.36659191,5.27872448 Z M27.6907694,15.7292239 L27.6907694,0.0458355236 L31.1396887,0.0458355236 L31.1396887,15.7292239 L27.6907694,15.7292239 Z M56.8115784,12.9867317 L53.8444371,12.9867317 C52.9802955,12.9867317 52.4832229,12.8568644 52.1467429,12.5665728 C51.8102629,12.2839204 51.642023,11.7186156 51.642023,10.8782976 L51.642023,3.20848666 L48.116631,3.20848666 L48.116631,11.1685893 C48.116631,12.9408962 48.6137035,14.1478983 49.6154962,14.7819564 C50.6096414,15.4160145 51.6037867,15.7292239 53.6761972,15.7292239 C53.6609027,15.7292239 56.8115784,16.0729903 56.8115784,12.9867317 Z M56.7886367,3.20848666 L56.8421675,15.7292239 L60.3140287,15.7292239 L60.3140287,3.20848666 L56.7886367,3.20848666 Z M69.7660559,3.20848666 C71.5555175,3.22376516 72.5955464,3.63628488 72.8784954,4.4460458 C73.1614443,5.25580671 73.2990954,6.34058078 73.2838008,7.70036797 L73.2838008,8.48721114 L69.9190013,8.46429339 L69.9190013,7.94482411 C69.9190013,6.79129675 69.9190013,6.15723869 69.6436997,5.87458629 C69.3683979,5.59193389 66.8600929,5.63776941 65.7130023,5.63776941 L65.3612277,5.63776941 L65.3612277,15.7368631 L62.0576066,15.7368631 L62.0576066,3.20848666 L69.7660559,3.20848666 L69.7660559,3.20848666 Z M87.4159581,7.35660155 C87.2018345,6.55447988 86.819471,5.8211115 86.2688674,5.15649642 C85.6035548,4.34673549 84.8235331,3.82726624 83.9211551,3.59044936 C83.0187772,3.35363249 82.0628682,3.22376516 81.0534284,3.20848666 L78.055698,3.20848666 L78.055698,0.0458355236 L74.5838368,0.0458355236 L74.5838368,15.7292239 L77.9486363,15.7292239 C77.9639308,15.7292239 77.9868726,5.92042181 77.971578,5.92042181 L79.3022033,5.92042181 L79.3022033,5.94333956 C79.967516,5.94333956 81.4816755,6.04264987 82.0246319,6.17251719 C82.5752353,6.30238452 83.156428,6.64615094 83.5082025,7.28020901 C83.6840896,7.56286141 83.8064461,7.87607082 83.890566,8.20455874 C83.9670388,8.53304666 84.0205696,8.87681309 84.0358642,9.22821878 C84.0358642,9.41920013 84.0282168,9.61018146 84.0205696,9.80880208 C84.0129225,10.0074227 83.9976279,10.198404 83.9823334,10.3893854 C83.8523297,11.8179259 83.2864316,12.5207372 82.3764063,12.8339466 C81.3363773,13.1929916 79.9904577,13.1624346 78.927487,13.116599 C78.6827743,13.1089598 78.1857016,13.0936813 77.9792254,13.0936813 C77.9792254,16.2028576 81.1681374,15.7521416 81.6040319,15.7521416 C83.5693806,15.7521416 84.7700022,15.2021154 85.8712092,14.1478983 C86.9800635,13.0936813 87.5689036,11.6498623 87.6530236,9.80880208 C87.7142016,8.97612339 87.6300816,8.15872322 87.4159581,7.35660155 Z M101.112221,14.3465189 C100.446908,14.95002 99.6439449,15.3930967 98.7033305,15.6757491 C97.762716,15.9584015 96.7150399,15.9889786 95.7208946,15.9889786 C94.7191022,15.9889786 93.6637787,15.9965978 92.7308116,15.7139454 C91.7978446,15.431293 91.0025283,14.9958555 90.3372157,14.4076329 C89.6566087,13.8041319 89.2360087,12.9332569 88.8918815,12.092939 C88.5477543,11.2526211 88.3795142,10.3893854 88.3795142,9.50323191 C88.3795142,8.61707846 88.5477543,7.75384276 88.8918815,6.91352483 C89.2360087,6.07320689 89.6336667,5.25580671 90.3142739,4.65230566 C90.9795866,4.06408309 91.78255,3.62864562 92.7231645,3.33071472 C93.6637787,3.04042308 94.7496913,2.98694829 95.7438366,2.98694829 C96.7226873,2.98694829 97.785658,3.0022268 98.718625,3.29251846 C99.6592395,3.5828101 100.462203,4.02588683 101.127516,4.61410938 C101.808123,5.21761045 102.228723,6.07320689 102.57285,6.91352483 C102.916977,7.75384276 103.085217,8.61707846 103.085217,9.50323191 C103.085217,10.3893854 102.916977,11.2526211 102.57285,12.092939 C102.228723,12.9332569 101.792828,13.7659356 101.112221,14.3694367 L101.112221,14.3465189 L101.112221,14.3465189 Z M94.4285058,12.9790925 C94.5585095,13.024928 94.6808659,13.0631243 94.8032221,13.0936813 C94.9255786,13.1242383 95.0402877,13.147156 95.1473493,13.1624346 C96.0344329,13.2693841 96.8603381,13.1318775 97.6403598,12.7499148 C98.4127341,12.3679521 98.9327486,11.8026473 99.1927558,11.069279 C99.2845232,10.8095443 99.3533486,10.5268919 99.3992322,10.228961 C99.4451159,9.93103014 99.4680576,9.62545997 99.4680576,9.31988982 C99.4298213,8.64763548 99.2386395,8.00593814 98.8868649,7.39479783 C98.5350906,6.79129675 97.9768398,6.34822004 97.1968181,6.07320689 C97.028578,6.01209286 96.8526909,5.96625733 96.6691562,5.93570032 C96.4856218,5.9051433 96.3097345,5.88222553 96.1414946,5.86694703 C95.2926475,5.805833 94.4973312,5.96625733 93.7631932,6.34822004 C93.021408,6.73018272 92.5243352,7.27256977 92.2719754,7.96010262 C92.180208,8.21983725 92.1113827,8.4948504 92.065499,8.7775028 C92.0196153,9.06015517 92.0043208,9.34280757 92.0272627,9.61782073 C92.0425573,10.3435499 92.2413863,11.0234434 92.6237497,11.6575015 C92.998466,12.2915596 93.6026005,12.7422756 94.4361532,13.0020102 L94.4361532,12.9790925 L94.4285058,12.9790925 L94.4285058,12.9790925 Z M45.0577224,14.3465189 C44.3924099,14.95002 43.5894463,15.3930967 42.648832,15.6757491 C41.7082176,15.9584015 40.6605415,15.9889786 39.6663962,15.9889786 C38.6646035,15.9889786 37.6092803,15.9965978 36.676313,15.7139454 C35.7433459,15.431293 34.9480299,14.9958555 34.2827172,14.4076329 C33.60211,13.8041319 33.1815101,12.9332569 32.8373829,12.092939 C32.4932557,11.2526211 32.3250158,10.3893854 32.3250158,9.50323191 C32.3250158,8.61707846 32.4932557,7.75384276 32.8373829,6.91352483 C33.1815101,6.07320689 33.5791683,5.25580671 34.2597753,4.65230566 C34.9250879,4.06408309 35.7280514,3.62864562 36.6686658,3.33071472 C37.6092803,3.04042308 38.6951927,2.98694829 39.6893379,2.98694829 C40.6681887,2.98694829 41.7311593,3.0022268 42.6641266,3.29251846 C43.6047408,3.5828101 44.4077043,4.02588683 45.0730169,4.61410938 C45.7536241,5.21761045 46.1742241,6.07320689 46.5183513,6.91352483 C46.8624785,7.75384276 47.0307184,8.61707846 47.0307184,9.50323191 C47.0307184,10.3893854 46.8624785,11.2526211 46.5183513,12.092939 C46.1742241,12.9332569 45.7383296,13.7659356 45.0577224,14.3694367 L45.0577224,14.3465189 L45.0577224,14.3465189 Z M38.3740074,12.9790925 C38.504011,13.024928 38.6263673,13.0631243 38.7487237,13.0936813 C38.8710799,13.1242383 38.985789,13.147156 39.0928509,13.1624346 C39.9799343,13.2693841 40.8058397,13.1318775 41.5858612,12.7499148 C42.3582357,12.3679521 42.8782502,11.8026473 43.1382574,11.069279 C43.2300245,10.8095443 43.2988501,10.5268919 43.3447336,10.228961 C43.3906173,9.93103014 43.4135592,9.62545997 43.4135592,9.31988982 C43.3753227,8.64763548 43.1841409,8.00593814 42.8323665,7.39479783 C42.4805919,6.79129675 41.9223412,6.34822004 41.1423195,6.07320689 C40.9740796,6.01209286 40.7981923,5.96625733 40.6146578,5.93570032 C40.4311234,5.9051433 40.2552361,5.88222553 40.0869962,5.86694703 C39.2381491,5.805833 38.4428328,5.96625733 37.7086948,6.34822004 C36.9669093,6.73018272 36.4698368,7.27256977 36.2174767,7.96010262 C36.1257096,8.21983725 36.0568842,8.4948504 36.0110006,8.7775028 C35.9651169,9.06015517 35.9498223,9.34280757 35.9727641,9.61782073 C35.9880586,10.3435499 36.1868876,11.0234434 36.5692513,11.6575015 C36.9439676,12.2915596 37.548102,12.7422756 38.3816546,13.0020102 L38.3816546,12.9790925 L38.3740074,12.9790925 L38.3740074,12.9790925 Z M24.6395082,14.3465189 C23.9741955,14.95002 23.1712321,15.3930967 22.2306177,15.6757491 C21.2900033,15.9584015 20.2423271,15.9889786 19.2481818,15.9889786 C18.2463893,15.9889786 17.1910658,15.9965978 16.2580988,15.7139454 C15.3251317,15.431293 14.5298155,14.9958555 13.8645028,14.4076329 C13.1838957,13.8041319 12.7632958,12.9332569 12.4191686,12.092939 C12.0750414,11.2526211 11.9068014,10.3893854 11.9068014,9.50323191 C11.9068014,8.61707846 12.0750414,7.75384276 12.4191686,6.91352483 C12.7632958,6.07320689 13.1609539,5.25580671 13.841561,4.65230566 C14.5068736,4.06408309 15.3098371,3.62864562 16.2504515,3.33071472 C17.1910658,3.04042308 18.2769784,2.98694829 19.2711236,2.98694829 C20.2499744,2.98694829 21.3129451,3.0022268 22.2459122,3.29251846 C23.1865264,3.5828101 23.9894901,4.02588683 24.6548027,4.61410938 C25.3354097,5.21761045 25.7560097,6.07320689 26.1001369,6.91352483 C26.4442641,7.75384276 26.6125042,8.61707846 26.6125042,9.50323191 C26.6125042,10.3893854 26.4442641,11.2526211 26.1001369,12.092939 C25.7560097,12.9332569 25.3201152,13.7659356 24.6395082,14.3694367 L24.6395082,14.3465189 L24.6395082,14.3465189 Z M17.955793,12.9790925 C18.0857966,13.024928 18.2081529,13.0631243 18.3305093,13.0936813 C18.4528656,13.1242383 18.5675747,13.147156 18.6746365,13.1624346 C19.56172,13.2693841 20.3876253,13.1318775 21.1676469,12.7499148 C21.9400213,12.3679521 22.4600358,11.8026473 22.720043,11.069279 C22.8118104,10.8095443 22.8806358,10.5268919 22.9265194,10.228961 C22.9724029,9.93103014 22.9953448,9.62545997 22.9953448,9.31988982 C22.9571083,8.64763548 22.7659267,8.00593814 22.4141521,7.39479783 C22.0623778,6.79129675 21.5041269,6.34822004 20.7241052,6.07320689 C20.5558652,6.01209286 20.379978,5.96625733 20.1964435,5.93570032 C20.012909,5.9051433 19.8370217,5.88222553 19.6687817,5.86694703 C18.8199346,5.805833 18.0246184,5.96625733 17.2904804,6.34822004 C16.5486951,6.73018272 16.0516224,7.27256977 15.7992625,7.96010262 C15.7074952,8.21983725 15.6386698,8.4948504 15.5927861,8.7775028 C15.5469025,9.06015517 15.531608,9.34280757 15.5545498,9.61782073 C15.5698443,10.3435499 15.7686734,11.0234434 16.151037,11.6575015 C16.5257532,12.2915596 17.1298877,12.7422756 17.9634403,13.0020102 L17.9634403,12.9790925 L17.955793,12.9790925 L17.955793,12.9790925 Z" id="Shape"></path>
                                        <polygon id="Shape" points="105.624111 3.20848666 108.461249 6.98991737 111.367212 3.20848666 115.382029 3.20848666 110.495423 9.54906743 115.313204 15.7292239 111.252503 15.7292239 108.468896 12.092939 105.662347 15.7292239 101.624588 15.7292239 106.488253 9.48031416 101.56341 3.20848666"></polygon>
                                    </g>
                                </g>
                                <g id="bottom" transform="translate(116.238524, 0.229178)" fill-rule="nonzero">
                                    <g id="Group">
                                        <path d="M26.1689623,31.0077318 L8.80200925,28.4103855 C10.4767617,27.7075741 14.3003973,25.9047102 17.2751858,23.6664088 C20.2193853,21.4510251 22.6665122,18.2272599 23.6530101,16.7910802 C24.5095046,16.1493829 25.2283481,15.3167042 25.7407151,14.3388797 L28.6619727,8.80805981 C29.3578745,10.2747966 30.6349688,13.2999411 31.3614596,17.0890111 C32.0573612,20.6107072 31.4685213,25.9505456 31.0555687,28.8229052 C30.0155398,30.41187 28.1190166,31.2980234 26.1689623,31.0077318 Z" id="Shape" fill="url(#linearGradient-1)"></path>
                                        <path d="M17.2904804,23.7428012 C14.3080446,25.9734634 10.4844089,27.6999348 8.80965653,28.4103855 C8.75612562,28.4027463 8.66435837,28.3874677 8.66435837,28.3874677 C8.49611841,28.3569107 8.34317298,28.2652397 8.23611117,28.127733 L0.0611781704,17.6619551 L0.41295265,17.8529365 C0.558250803,17.929329 0.718843501,17.9675253 0.879436199,17.9751645 L19.0952364,18.2654562 C20.7776361,18.2960132 22.3759158,17.7536262 23.6606575,16.7834409 C22.6665122,18.2196207 20.2193853,21.5197784 17.2904804,23.7428012 L17.2904804,23.7428012 Z" id="Shape" fill="url(#linearGradient-2)"></path>
                                        <path d="M31.5832304,27.7686882 C31.4455796,28.1506508 31.2696923,28.5020565 31.0479213,28.8343641 C31.430285,25.897071 32.0573612,20.6107072 31.315576,17.0890111 C30.6426161,13.2923019 29.3272854,10.3129928 28.6543256,8.82333832 L33.3191611,0.0305570158 L37.0586767,12.092939 C37.096913,12.2075278 37.0892658,12.3297559 37.0510293,12.4443447 L31.5832304,27.7686882 Z" id="Shape" fill="url(#linearGradient-3)"></path>
                                    </g>
                                </g>
                                <g id="up" transform="translate(117.538560, 0.000000)" fill-rule="nonzero">
                                    <g id="Group">
                                        <path d="M30.2908416,1.10005257 L29.8855362,1.81050319 C28.2184311,1.71883214 21.848254,1.71883214 15.8527934,6.46280883 C10.9279507,10.3588284 9.60497273,15.4083752 9.29143461,17.0813718 L0.611781704,17.0890111 C0.122356341,17.0890111 -0.137650883,16.516067 0.191181782,16.1493829 L10.8591252,4.17103266 C11.4403179,3.52169607 12.2279868,3.07861933 13.0844812,2.93347352 L29.5796452,0.0840317934 C30.1455434,-0.00763925395 30.5737905,0.595861809 30.2908416,1.10005257 Z" id="Shape" fill="url(#linearGradient-4)"></path>
                                        <path d="M29.8855362,1.80286393 L23.8059554,12.4519839 L18.1393275,12.7193578 C17.3287167,12.7575541 16.5869314,13.1777131 16.1357424,13.8576067 L14.0174483,17.0737326 L9.29143461,17.0737326 C9.60497273,15.3930967 10.9355979,10.3435499 15.8527934,6.45516959 C21.848254,1.71883214 28.2184311,1.71119288 29.8855362,1.80286393 L29.8855362,1.80286393 Z" id="Shape" fill="url(#linearGradient-5)"></path>
                                    </g>
                                </g>
                            </g>
                        </g>
                    </g>
                </g>
            </g>
        </g>
    </g>
</svg>